<?xml version="1.0" encoding="utf-8"?>
<!-- Generator: Adobe Illustrator 19.0.0, SVG Export Plug-In . SVG Version: 6.00 Build 0)  -->
<svg version="1.1" id="Layer_1" xmlns="http://www.w3.org/2000/svg" xmlns:xlink="http://www.w3.org/1999/xlink" x="0px" y="0px"
	 viewBox="-307 229 24 24" style="enable-background:new -307 229 24 24;" xml:space="preserve">
<style type="text/css">
	.st0{fill:none;}
	.st1{fill:#DD5112;}
</style>
<path class="st0" d="M-307,229h24v24h-24V229z"/>
<path class="st1" d="M-289,237h-1v-2c0-2.8-2.2-5-5-5s-5,2.2-5,5v2h-1c-1.1,0-2,0.9-2,2v10c0,1.1,0.9,2,2,2h12c1.1,0,2-0.9,2-2v-10
	C-287,237.9-287.9,237-289,237z M-295,246c-1.1,0-2-0.9-2-2s0.9-2,2-2s2,0.9,2,2S-293.9,246-295,246z M-291.9,237h-6.2v-2
	c0-1.7,1.4-3.1,3.1-3.1s3.1,1.4,3.1,3.1V237z"/>
</svg>
