<?xml version="1.0" encoding="utf-8"?>
<!-- Generator: Adobe Illustrator 19.0.0, SVG Export Plug-In . SVG Version: 6.00 Build 0)  -->
<svg version="1.1" id="Layer_1" xmlns="http://www.w3.org/2000/svg" xmlns:xlink="http://www.w3.org/1999/xlink" x="0px" y="0px"
	 viewBox="-309 231 20 20" style="enable-background:new -309 231 20 20;" xml:space="preserve">
<style type="text/css">
	.st0{fill:none;}
	.st1{fill:#FFFFFF;}
</style>
<path class="st0" d="M-309,231h20v20h-20V231z"/>
<path class="st1" d="M-293,241.8c0-0.3,0-0.5,0-0.8s0-0.5-0.1-0.8l1.7-1.3c0.1-0.1,0.2-0.3,0.1-0.5l-1.6-2.8
	c-0.1-0.2-0.3-0.2-0.5-0.2l-2,0.8c-0.4-0.3-0.9-0.6-1.4-0.8l-0.3-2.1c0-0.2-0.2-0.3-0.4-0.3h-3.2c-0.2,0-0.4,0.1-0.4,0.3l-0.3,2.1
	c-0.5,0.2-0.9,0.5-1.4,0.8l-2-0.8c-0.2-0.1-0.4,0-0.5,0.2l-1.6,2.8c-0.1,0.2-0.1,0.4,0.1,0.5l1.7,1.3c0,0.3-0.1,0.5-0.1,0.8
	s0,0.5,0.1,0.8l-1.7,1.3c-0.1,0.1-0.2,0.3-0.1,0.5l1.6,2.8c0.1,0.2,0.3,0.2,0.5,0.2l2-0.8c0.4,0.3,0.9,0.6,1.4,0.8l0.3,2.1
	c0,0.2,0.2,0.3,0.4,0.3h3.2c0.2,0,0.4-0.1,0.4-0.3l0.3-2.1c0.5-0.2,0.9-0.5,1.4-0.8l2,0.8c0.2,0.1,0.4,0,0.5-0.2l1.6-2.8
	c0.1-0.2,0.1-0.4-0.1-0.5C-291.4,243.1-293,241.8-293,241.8z M-299,244c-1.6,0-3-1.4-3-3s1.4-3,3-3s3,1.4,3,3S-297.4,244-299,244z"
	/>
</svg>
